<?xml version="1.0" encoding="UTF-8"?>
<svg width="1030.4" height="754.58" version="1.1" viewBox="0 0 1030.3988 754.57772" xmlns="http://www.w3.org/2000/svg">
 <g transform="translate(224.86 -244.42)">
  <path d="m532.97 995.54c-7.2244-1.5552-52.009-14.043-99.521-27.75s-92.451-24.923-99.864-24.923-56.632 8.9995-109.38 19.999c-92.096 19.206-96.785 19.635-118.27 10.815-12.304-5.051-24.108-13.92-26.232-19.709-2.5108-6.8438-7.5666-9.2954-14.454-7.0089-6.6709 2.2146-8.9628 1.2351-6.1905-2.6456 2.4212-3.3892 0.68944-7.6353-3.8483-9.4359-4.5378-1.8006-0.86188-2.0426 8.1686-0.53773 9.0305 1.5048 12.706 1.2629 8.1686-0.5375-4.5378-1.8006-6.5826-5.6084-4.5442-8.4618s-2.7894-4.5526-10.728-3.7761c-7.9391 0.7765-15.746-1.7841-17.348-5.6904-1.6022-3.9062 1.5918-7.1023 7.098-7.1023 5.5061 0 11.507-2.0942 13.336-4.6538 1.8285-2.5596-5.5032-3.5328-16.293-2.1629-22.739 2.8873-24.205-8.3321-2.6757-20.484 12.456-7.0308 12.259-7.3014-3.809-5.234-13.111 1.6869-19.356-1.456-27.607-13.893-10.521-15.86-10.439-16.073 6.1536-16.073 12.636 0 15.825-2.2342 12.83-8.9875-2.1926-4.9431-3.9865-9.9928-3.9865-11.222 0-1.2287-9.6052-0.90078-21.345 0.72882l-21.345 2.963 19.703-8.7159 19.703-8.7159-22.987 2.7828c-21.835 2.6434-22.164 2.4415-6.5676-4.0285 9.0305-3.7462 17.227-7.2213 18.216-7.7224 0.98809-0.50118 0.052541-4.8461-2.0821-9.6554-2.882-6.4976-10.937-8.1568-31.351-6.458-29.074 2.4195-27.166 0.12137 5.3659-6.4647 17.681-3.5796 18.355-4.4642 6.5676-8.6204-7.2244-2.5472-9.441-4.8111-4.9257-5.0308 4.5152-0.22 8.2095-2.8347 8.2095-5.8112 0-2.9766-9.0335-4.4229-20.075-3.214-14.411 1.5778-21.224-0.50227-24.15-7.3723-2.2413-5.2636-7.2461-11.449-11.122-13.745-3.9484-2.339-0.37882-4.2127 8.1181-4.2614 8.3406-0.0455 13.509 2.2314 11.484 5.065-2.0408 2.8567 2.9069 3.5919 11.106 1.6502 13.895-3.2907 13.995-3.6472 1.6509-5.9178-13.135-2.4161-13.135-2.4161 0-7.1517 9.6909-3.4937 6.4279-4.4104-12.443-3.4955-32.118 1.5571-37.723-9.1759-9.112-17.45l21.555-6.2334-26.271 2.3872-26.271 2.3871 21.345-6.3727c23.99-7.1624 25.124-9.4492 12.244-24.688-7.5092-8.8844-11.815-9.6897-24.629-4.6058-15.304 6.0722-15.196 6.2455 7.4585 12.009 12.643 3.2166 18.056 6.0789 12.03 6.3608-6.0259 0.28181-16.37 2.032-22.987 3.8894-10.005 2.8085-10.372 2.3449-2.179-2.7539 8.6101-5.3583 8.4917-6.1418-0.93922-6.2178-5.9349-0.0477-12.396-3.7068-14.359-8.131-2.451-5.5259 4.0108-9.9275 20.642-14.061l24.21-6.0168-26.271 2.3745-26.271 2.3744 21.345-6.1811c11.74-3.3996 21.345-8.6416 21.345-11.649 0-3.0073-4.7077-3.9049-10.462-1.9947-5.7538 1.9101-18.314 4.7937-27.912 6.4078-14.663 2.4661-15.353 2.0842-4.3156-2.3906 7.2244-2.9289 18.73-6.8775 25.569-8.7746 20.952-5.8124 7.7802-9.0119-14.422-3.5032-12.666 3.1426-22.294 3.1045-24.581-0.0973-2.068-2.8948 3.0642-5.3024 11.405-5.3503 8.3406-0.0477 19.598-2.5322 25.016-5.5208 7.0738-3.9017 3.3703-4.88-13.135-3.4695-12.643 1.0804-17.076 0.79141-9.8514-0.64214 27.027-5.3631 27.027-14.479 0-11.179l-26.271 3.2074 21.555-6.2334c27.612-7.9847 23.464-18.87-6.8918-18.085-17.798 0.46023-22.514-1.3446-19.757-7.5601 2.0696-4.666 8.8591-6.9796 15.844-5.3993 6.7226 1.5209 14.107 0.12818 16.41-3.0953 2.6878-3.7625-4.2962-5.0038-19.508-3.4675-14.648 1.4795-24.848-0.20591-26.714-4.4142-4.1155-9.2783 2.1799-13.71 18.515-13.034 12.067 0.4995 11.744 1.1343-2.7365 5.3758-15.747 4.6126-15.613 4.7638 3.2838 3.695 12.541-0.70932 19.703-4.2052 19.703-9.6171 0-6.2998-6.8061-8.2416-26.271-7.4951-23.146 0.88773-23.927 0.54082-6.5676-2.9168 30.632-6.1011 25.664-21.094-6.5676-19.82l-26.271 1.0379 24.355-6.7675c29.24-8.125 25.373-19.235-8.2623-23.741-16.496-2.2095-19.087-1.6683-9.525 1.9895 10.434 3.9914 11.11 5.6154 3.2838 7.898-5.4183 1.5803-0.98515 2.0675 9.8514 1.0826 18.144-1.6491 18.563-1.3087 5.2884 4.3026-16.094 6.8035-37.924 2.1825-31.588-6.6867 2.2482-3.1471 1.2194-5.722-2.2864-5.722-12.707 0-2.6675-19.698 11.516-22.594 23.649-4.8298 15.972-13.925-16.898-20.019-32.845-6.09-46.683-19.61-20.762-20.286 12.609-0.32864 13.275-1.1007 3.7609-4.357-9.6896-3.3163-7.9832-5.6258 10.529-14.251 12.151-5.6612 26.221-18.375 31.266-28.253 7.8758-15.419 14.939-19.252 49.932-27.095 28.064-6.2899 46.473-14.424 59.109-26.119 16.599-15.363 23.608-17.363 73.43-20.953 39.679-2.8592 59.667-7.0911 71.488-15.135 11.205-7.6249 26.542-11.166 48.361-11.166 17.574 0 31.952-2.4912 31.952-5.5359s8.1274-9.0461 18.061-13.336c13.69-5.9126 31.424-6.7532 73.275-3.4732 43.888 3.4396 57.12 2.6787 64.503-3.7092 11.749-10.165 35.182-10.152 91.659 0.0477 42.103 7.6041 192.19 18.581 210.99 15.43 16.066-2.6928 53.856 11.436 60.857 22.752 3.8329 6.1959 6.0268 19.293 4.8753 29.105-2.0185 17.2-0.52489 18.359 41.623 32.314 77.48 25.652 84.641 41.158 55.22 119.57-80.953 215.75-118.56 313.71-141.77 369.34-14.998 35.938-33.476 84.123-41.062 107.08-16.166 48.924-29.276 57.435-73.727 47.866zm46.309-17.248c3.7968-2.2959 13.248-22.072 21.002-43.947 7.7544-21.875 41.856-110.09 75.782-196.02 95.478-241.86 119.59-314.08 112.25-336.2-8.2814-24.981-25.702-32.771-171.06-76.488-254.54-76.557-270.74-79.799-287.11-57.48-9.8119 13.37-49.715 111.56-151.81 373.58-33.487 85.938-64.347 163.82-68.578 173.07-11.882 25.987-4.2281 40.274 27.456 51.252 15.385 5.3302 82.648 26.189 149.47 46.353 66.826 20.164 145.14 44.08 174.04 53.146 50.376 15.805 103.96 21.562 118.55 12.737zm-19.604-25.481c9.9689-27.685 16.509-39.793 19.907-36.853 5.2632 4.5533-11.576 49.637-18.54 49.637-3.2838 0-3.8991-5.7528-1.3673-12.784zm-34.577-7.9933c-5.2497-11.835 11.76-38.882 24.453-38.882 12.943 0 16.089 18.438 5.9438 34.838-9.6685 15.629-24.389 17.588-30.396 4.044zm30.858-25.763c0-8.1329-11.599-4.8919-15.716 4.3916-7.1799 16.187-3.7703 22.493 6.0738 11.233 5.3034-6.0661 9.6426-13.097 9.6426-15.625zm-101.52-30.185c-4.3718-30.272-3.8366-31.769 16.754-46.875 45.353-33.273 43.578-33.341 52.061 2.0093l7.652 31.888-28.523 21.963c-15.687 12.08-31.876 22.036-35.976 22.124-4.1494 0.09-9.4544-13.699-11.969-31.11zm115.14-9.789c-4.5254-10.127-2.7582-14.97 8.1804-22.417 25.112-17.096 34.479 3.4225 10.882 23.837l-13.29 11.497-5.7723-12.918zm-344.67-42.747-4.4774-32.671 27.413-21.534c30.109-23.652 39.506-24.387 46.216-3.6126 10.674 33.045 6.5608 45.705-22.151 68.176-15.352 12.015-31.2 21.951-35.218 22.079-4.052 0.12954-9.2993-14.316-11.783-32.438zm158-18.883c-9.9315-29.034-17.408-56.015-17.408-62.822 0-4.3685 11.822-14.264 26.271-21.989 14.449-7.7254 26.271-16 26.271-18.387 0-2.3873 5.5414-4.3406 12.314-4.3406 12.292 0 20.524 19.171 20.524 47.799 0 15.56-63.879 71.702-67.971 59.739zm130.88-60.199-11.539-31.67 28.224-24.88c41.081-36.213 45.485-34.441 54.168 21.793 3.0227 19.578 0.99591 22.743-28.027 43.766l-31.286 22.661-11.539-31.67zm-223.29-43.077c-2.4405-13.281-5.9982-29.57-7.906-36.198-2.6652-9.2584 3.5602-17.033 26.872-33.559 18.1-12.831 32.731-19.431 36.265-16.359 3.2587 2.8322 7.7158 18.747 9.9046 35.366 3.9494 29.988 3.7653 30.385-24.273 52.324-15.539 12.159-30.091 22.212-32.339 22.34-2.2475 0.12773-6.0831-10.634-8.5236-23.915zm279.38-105.1-8.7772-32.661 31.896-24.281c28.174-21.448 32.8-23.211 39.647-15.11 4.2633 5.044 9.7886 19.603 12.279 32.354 4.3356 22.201 3.2347 24.225-25.988 47.772-16.784 13.524-32.712 24.589-35.397 24.589s-8.8315-14.698-13.659-32.661zm-220.86-56.443-10.849-32.285 25.16-18.638c36.159-26.786 44.427-24.914 54.774 12.4 8.4988 30.649 8.3236 31.707-6.7618 40.848-8.5177 5.1614-20.838 14.014-27.379 19.673-18.358 15.882-23.251 12.802-34.944-21.997zm124.01-34.476-6.9484-32.671 23.597-18.913c12.978-10.402 28.57-21.267 34.649-24.144 12.692-6.0068 16.444 1.1015 19.728 37.374 1.8734 20.69-0.65676 24.892-28.231 46.875-16.659 13.281-31.539 24.148-33.068 24.148s-5.9057-14.702-9.7273-32.671zm159.03-14.205c-1.2668-3.9062-6.1647-18.19-10.884-31.742l-8.5811-24.64 31.569-25.076c17.363-13.792 33.976-25.076 36.918-25.076 5.9952 0 9.6361 9.5812 16.018 42.152 4.1536 21.198 2.8553 23.446-27.064 46.875-35.13 27.509-34.784 27.35-37.977 17.507zm-220.58-67.523c0-6.6688-3.5301-22.318-7.8446-34.777-7.5753-21.874-7.1826-23.067 11.436-34.75 10.604-6.6543 24.774-16.829 31.488-22.61 15.098-13.001 21.005-8.1753 31.433 25.678l8.1722 26.53-32.417 25.801c-36.84 29.322-42.268 31.136-42.268 14.127zm-106.87-32.962c-3.466-11.467 11.125-34.459 21.867-34.459 8.2556 0 7.8926 20.731-0.60348 34.465-8.673 14.02-17.025 14.018-21.264-5e-3zm34.63-65.991c0-19.107 18.386-49.331 28.298-46.517 13.606 3.8622 12.368 29.677-2.1914 45.69-17.46 19.204-26.106 19.478-26.106 0.82769zm28.323-36.485c-5.1776-5.0083-14.988 13.987-14.588 28.245 0.35045 12.465 1.437 11.77 8.8768-5.6818 4.6628-10.938 7.2326-21.091 5.7109-22.563zm-47.49 40.268c-0.91689-13.458 14.367-51.796 20.649-51.796 6.3343 0 2.3455 14.641-11.61 42.614-4.677 9.375-8.7448 13.507-9.0395 9.182zm-157.27 619.81c-8.5441-1.1627-18.242 0.22864-21.551 3.0909-3.6436 3.1522 2.4833 3.986 15.535 2.1142 18.238-2.6157 19.163-3.416 6.0165-5.2051zm-43.05-8.9263c-5.3426-3.5366-16.952-33.277-25.798-66.09-18.113-67.184-155.39-536.03-157.48-537.84-5.3511-4.6294-92.313 26.08-97.778 34.529-6.4424 9.9593 0.53749 31.325 27.996 85.695 3.1565 6.25 23.802 50.995 45.879 99.432 22.077 48.438 44.33 96.077 49.452 105.86 5.1214 9.7876 20.712 41.748 34.647 71.023 36.076 75.793 73.181 152.53 83.851 173.4 5.0326 9.8473 9.1503 19.873 9.1503 22.28 0 9.2636 21.39 24.24 30.364 21.261 8.1222-2.6964 8.0825-4.0199-0.28635-9.56zm-196.71-429.78c-8.6199-7.5304-11.034-15.064-8.0844-25.231 5-17.235 11.211-18.168 26.11-3.9255 8.6918 8.309 9.6464 13.776 4.4643 25.568-7.6987 17.518-6.7225 17.362-22.49 3.5878zm-39.612-83.054c-2.4521-20.706-2.7782-39.101-0.72454-40.878 5.4004-4.672 26.309 15.404 42.536 40.841 14.433 22.625 14.827 33.005 0.69486 18.272-10.231-10.665-26.726-5.323-26.726 8.6556 0 5.9157-2.5473 10.756-5.6607 10.756s-7.6669-16.941-10.119-37.647zm25.466 3.7875c3.9296-5.5007-9.5599-28.64-16.696-28.64-2.1177 0-2.5491 7.6705-0.95855 17.046 2.888 17.024 10.299 21.891 17.655 11.595zm335.11 505.84c26.01-6.0656 38.844-11.055 29.554-11.49-16.245-0.76095-16.21-0.85755 3.2838-9.1213 10.837-4.5937 13.792-6.8338 6.5676-4.9779-7.2244 1.8558-39.478 8.2776-71.674 14.271-32.196 5.9929-60.273 12.543-62.392 14.556-2.1197 2.013 3.5346 2.1442 12.565 0.29137 9.0305-1.8527 29.719-4.7254 45.973-6.3838l29.554-3.0152-25.881 5.7207c-14.234 3.1465-27.288 6.9379-29.007 8.4254-6.1147 5.2901 16.126 2.2951 61.455-8.2759zm-4.9257-9.828c4.5152-1.5762 11.904-1.5762 16.419 0 4.5152 1.5762 0.82095 2.8659-8.2095 2.8659s-12.725-1.2897-8.2095-2.8659zm-75.506-6.5022c-32.196-2.0244-47.637-16.378-47.637-44.281 0-9.8596-3.9992-20.798-8.887-24.307-7.3072-5.2466-7.1752 0.43728 0.74272 31.975 11.945 47.579 18.757 53.044 55.675 44.667l27.817-6.3117-27.711-1.7425zm147.61 1.1506c-2.1824-1.888-7.847-2.0898-12.588-0.44818-5.2392 1.8138-3.683 3.1602 3.968 3.4327 6.9234 0.24682 10.802-1.0962 8.62-2.9842zm-59.109-11.364c-2.1824-1.888-7.847-2.0898-12.588-0.44818-5.2392 1.8138-3.683 3.1602 3.968 3.4327 6.9234 0.24682 10.802-1.0962 8.62-2.9842zm-98.132-20.592c0.54763-16.662-6.9325-26.795-19.949-27.025-6.0941-0.10727-6.5742 36.366-0.54726 41.58 10.502 9.0854 19.939 2.3836 20.496-14.555zm83.491 13.334 19.703-3.6642-26.271-6.5413c-58.109-14.469-68.96-14.977-68.96-3.2298 0 5.9775 1.9703 12.573 4.3784 14.656 5.2443 4.537 43.741 3.8765 71.149-1.2208zm-182.39-26.833c-2.1824-1.888-7.847-2.0898-12.588-0.44818-5.2392 1.8138-3.683 3.1602 3.968 3.4327 6.9234 0.24682 10.802-1.0962 8.62-2.9842zm-16.282-23.058c-4.5153-1.5762-11.904-1.5762-16.419 0-4.5153 1.5762-0.82095 2.8659 8.2095 2.8659s12.725-1.2897 8.2095-2.8659zm-6.5676-11.364c-4.5153-1.5762-11.904-1.5762-16.419 0-4.5153 1.5762-0.82095 2.8659 8.2095 2.8659s12.725-1.2897 8.2095-2.8659zm63.089-262.45c-6.8154-105.15-14.096-212.35-16.179-238.21l-3.7879-47.034-24.024 3.8995c-13.213 2.1447-40.279 5.4124-60.146 7.2616-34.872 3.2458-36.192 3.9901-38.153 21.512-1.1169 9.9823 5.39 43.221 14.46 73.864 9.0697 30.643 37.494 128.58 63.166 217.65 25.672 89.063 49.821 172.16 53.664 184.66l6.9884 22.727 8.2013-27.571c6.7534-22.703 6.0136-61.323-4.1903-218.75zm-72.558-106.64c-8.4772-7.3339-9.2795-12.587-3.9446-25.827 10.847-26.92 37.347-8.7109 29.033 19.949-5.0621 17.449-10.296 18.675-25.088 5.8776zm-23.301-66.078c-3.5564-3.9062-8.4918-14.773-10.968-24.148-2.4757-9.375-6.0378-21.52-7.9158-26.989-4.971-14.476 7.4081-12.189 15.377 2.8409l6.7782 12.784 8.4149-15.625c4.6282-8.5938 11-15.625 14.159-15.625 3.1595 0 2.5364 5.186-1.3847 11.524-5.6971 9.2095-4.4243 14.499 6.3366 26.335 13.803 15.181 17.774 30.323 7.9523 30.323-3.0324 0-8.8799-6.3921-12.994-14.205-10.676-20.271-22.978-18.287-17.614 2.8409 4.6434 18.29 2.1877 21.289-8.1417 9.9432zm151.64 157.67c5.6092-156.83 10.807-257.69 14.274-276.99 2.6934-14.992 1.667-15.625-25.328-15.625-52.208 0-51.111-3.7102-43.67 147.73 3.6083 73.438 9.3884 168.04 12.845 210.23 3.4563 42.188 6.533 86.932 6.837 99.432l0.55283 22.727 15.111-34.091c13.355-30.13 15.607-47.954 19.378-153.41zm-34.645-118.53c-6.748-10.908-6.66-15.691 0.47024-25.568 10.969-15.195 16.348-15.281 25.55-0.40546 5.6517 9.136 4.9401 14.815-3.2041 25.568-12.815 16.92-12.602 16.916-22.816 0.40545zm25.784-60.446c0-3.125-5.9742-5.6818-13.276-5.6818-31.47 0-32.896-63.211-1.5141-67.131 15.71-1.9621 18.405 3.9591 23.449 51.505 1.5746 14.844 0.27059 26.989-2.898 26.989-3.1685 0-5.7609-2.5568-5.7609-5.6818zm-11.822-18.182c-10.337-8.9427-10.125-21.979 0.32838-20.171 4.5152 0.78128 8.2095-3.6932 8.2095-9.9432 0-17.834-19.388-13.743-21.819 4.605-1.9121 14.426 7.706 32.327 17.369 32.327 2.0862 0 0.24642-3.0682-4.088-6.8182zm-147.58 367.02c-2.1824-1.888-7.847-2.0898-12.588-0.44818-5.2392 1.8138-3.683 3.1602 3.968 3.4327 6.9234 0.24682 10.802-1.0961 8.62-2.9842zm-21.208-30.658c13.135-4.8832 13.135-4.8832 0-5.1955-7.2244-0.17182-17.568 2.1662-22.987 5.1955-8.7569 4.8958-8.7569 5.4731 0 5.1955 5.4183-0.17182 15.762-2.5097 22.987-5.1955zm256.64-204.55c22.628-57.813 43.134-110.23 45.568-116.48 3.6782-9.4448 3.1392-9.9245-3.1919-2.8409-6.1807 6.9153-6.8338 5.8436-3.463-5.6818 7.2115-24.657 17.813-45.455 23.17-45.455 4.7404 0 34.602-68.738 30.957-71.259-0.87796-0.60718-27.37-2.4326-58.872-4.0563-38.722-1.996-59.202-0.85864-63.223 3.5109-3.2708 3.5548-7.8039 32.032-10.073 63.282-6.2206 85.654-10.725 302.34-6.0822 292.62 2.2374-4.6875 22.582-55.824 45.21-113.64zm-12.935-59.528c-10.434-13.777-10.408-15.638 0.44555-31.534 6.344-9.2911 13.796-16.893 16.561-16.893 10.647 0 13.015 29.249 3.7123 45.866l-9.63 17.202-11.089-14.641zm0.39143-74.942c-2.4081-2.0834-4.3784-7.5101-4.3784-12.059 0-6.8092 1.7908-6.9857 10.13-0.99837 13.987 10.043 22.896 0.97137 27.367-27.867 2.2778-14.692 0.56839-26.544-4.6063-31.938-7.0641-7.3638-5.0948-8.5516 13.921-8.3964 19.822 0.16181 20.941 0.97373 10.656 7.7287-7.1944 4.7247-11.493 15.183-11.493 27.961 0 36.019-23.224 61.462-41.595 45.569zm-350.86 102.29c-4.5378-1.5827-6.2695-5.6506-3.8483-9.0398 2.8417-3.9778 0.33783-4.8128-7.0639-2.3556-6.3063 2.0936-16.396 4.109-22.422 4.4787-6.0259 0.37001-2.0899 2.6241 8.7467 5.0096 22.828 5.0254 36.588 6.0926 24.588 1.907zm-21.304-38.231c0-1.2282-4.4332-3.7048-9.8514-5.5035-5.4183-1.7988-9.8514-0.79391-9.8514 2.233 0 3.0269 4.4332 5.5035 9.8514 5.5035 5.4183 0 9.8514-1.0049 9.8514-2.233zm-31.196-7.2118c-4.5153-1.5762-11.904-1.5762-16.419 0-4.5153 1.5762-0.82096 2.8658 8.2095 2.8658s12.725-1.2896 8.2095-2.8658zm29.418-16.715c-2.1824-1.888-7.847-2.0899-12.588-0.44864-5.2392 1.8138-3.683 3.1602 3.968 3.4328 6.9234 0.24682 10.802-1.0962 8.62-2.9842zm448.18-61.908c0-3.125-2.865-1.8466-6.3665 2.8409s-6.3665 11.08-6.3665 14.205 2.865 1.8466 6.3665-2.8409 6.3665-11.08 6.3665-14.205zm400.83-39.077c0-24.947-12.456-33.156-54.401-35.853-49.987-3.2134-162.97-13.459-182.03-16.507-9.0305-1.444 38.256 13.851 105.08 33.989 66.826 20.138 123.72 36.828 126.43 37.088 2.7091 0.26091 4.9257-8.1618 4.9257-18.717zm-678.11 521.11c4.5152-1.5762 11.904-1.5762 16.419 0 4.5152 1.5762 0.82095 2.8659-8.2095 2.8659-9.0305 0-12.725-1.2897-8.2095-2.8659zm-22.862-39.947c6.3901-1.4406 15.256-1.3458 19.703 0.21 4.4465 1.5565-0.78176 2.7351-11.618 2.6193-10.837-0.11591-14.475-1.3892-8.0845-2.8298zm-21.47-24.472c0-3.125 2.9554-5.6818 6.5676-5.6818s6.5676 2.5568 6.5676 5.6818-2.9554 5.6818-6.5676 5.6818-6.5676-2.5568-6.5676-5.6818zm-27.502-100.47c4.741-1.6413 10.406-1.4395 12.588 0.44864 2.1823 1.888-1.6967 3.2309-8.62 2.9842-7.6509-0.27273-9.2071-1.619-3.968-3.4328zm-57.877-81.346c5.4183-3.0293 15.762-5.3673 22.987-5.1955 13.135 0.31228 13.135 0.31228 0 5.1955-7.2244 2.6857-17.568 5.0237-22.987 5.1955-8.7569 0.27773-8.7569-0.29954 0-5.1955zm-38.858-64.542c7.7376-5.7728 39.559-9.2169 35.737-3.868-2.3219 3.2502-11.928 5.9096-21.348 5.9096-9.4193 0-15.895-0.91874-14.39-2.0416zm-33.385-65.518c8.3895-5.2211 7.9834-6.1438-2.7365-6.2178-6.9234-0.0477-10.942-1.5112-8.9298-3.2518 2.0121-1.7406 13.587-0.69283 25.723 2.3285 12.136 3.0213 17.135 5.7239 11.109 6.0057-6.0259 0.28182-16.37 2.032-22.987 3.8894-10.005 2.8085-10.372 2.3449-2.179-2.7539z"/>
 </g>
</svg>
