<?xml version='1.0' encoding='utf-8'?>
<svg xmlns="http://www.w3.org/2000/svg" width="91.44mm" height="91.44mm" version="1.1" style="shape-rendering:geometricPrecision; text-rendering:geometricPrecision; image-rendering:optimizeQuality; fill-rule:evenodd; clip-rule:evenodd" viewBox="0 0 139.41 139.41"> <defs> <style type="text/css">  .fil1 {fill:white;fill-rule:nonzero} .fil0 {fill:url(#id0)}  </style> <linearGradient id="id0" gradientUnits="userSpaceOnUse" x1="131.04" y1="8.35" x2="8.35" y2="131.04"> <stop offset="0" style="stop-opacity:1; stop-color:#EC268F"/> <stop offset="1" style="stop-opacity:1; stop-color:#F58634"/> </linearGradient> </defs> <g id="Camada_x0020_1"> <metadata id="CorelCorpID_0Corel-Layer"/> <polygon class="fil0" points="-0,139.41 139.41,139.41 139.41,0 -0,0 "/> <path class="fil1" d="M69.7 37.92c4.57,0 8.7,1.85 11.69,4.85 2.99,2.99 4.84,7.13 4.84,11.69 0,4.57 -1.85,8.7 -4.84,11.69 -2.99,2.99 -7.13,4.84 -11.69,4.84 -4.57,0 -8.7,-1.85 -11.69,-4.84 -2.99,-2.99 -4.84,-7.13 -4.84,-11.69 0,-4.56 1.85,-8.7 4.84,-11.69 2.99,-3 7.13,-4.85 11.69,-4.85zm12.94 37.01c-0.59,-0.4 -0.75,-1.19 -0.35,-1.79 0.39,-0.59 1.19,-0.75 1.78,-0.35 3.54,2.37 6.47,5.59 8.49,9.37 1.95,3.64 3.06,7.79 3.06,12.17l0 5.86c0,0.71 -0.58,1.29 -1.29,1.29l-49.26 0c-0.71,0 -1.29,-0.58 -1.29,-1.29l0 -5.86c0,-4.41 1.12,-8.58 3.09,-12.23 2.04,-3.78 5,-7.01 8.56,-9.38 0.59,-0.39 1.39,-0.23 1.78,0.36 0.39,0.59 0.23,1.39 -0.36,1.79 -3.22,2.13 -5.88,5.04 -7.72,8.45 -1.77,3.28 -2.77,7.03 -2.77,11.01l0 4.57 46.67 0 0 -4.57c0,-3.96 -0.99,-7.69 -2.75,-10.96 -1.82,-3.4 -4.46,-6.3 -7.65,-8.44zm-3.07 -30.34c-2.52,-2.52 -6.01,-4.09 -9.87,-4.09 -3.85,0 -7.34,1.57 -9.87,4.09 -2.53,2.52 -4.09,6.01 -4.09,9.87 0,3.85 1.56,7.34 4.09,9.87 2.53,2.53 6.01,4.09 9.87,4.09 3.85,0 7.34,-1.56 9.87,-4.09 2.53,-2.53 4.09,-6.01 4.09,-9.87 0,-3.85 -1.56,-7.35 -4.09,-9.87z"/> </g> </svg>